<svg viewBox="0 0 512 512" xml:space="preserve" xmlns="http://www.w3.org/2000/svg"><g fill="#f8f9fa" class="fill-303a3f"><path d="M365 167.8H228.2c-5.7 0-10.4-4.7-10.4-10.4v-.8c0-5.7 4.7-10.4 10.4-10.4H365c5.7 0 10.4 4.7 10.4 10.4v.8c.1 5.7-4.6 10.4-10.4 10.4zM365 228.8H153.9c-5.7 0-10.4-4.7-10.4-10.4v-.8c0-5.7 4.7-10.4 10.4-10.4H365c5.7 0 10.4 4.7 10.4 10.4v.8c.1 5.7-4.6 10.4-10.4 10.4zM365 289.8H153.9c-5.7 0-10.4-4.7-10.4-10.4v-.8c0-5.7 4.7-10.4 10.4-10.4H365c5.7 0 10.4 4.7 10.4 10.4v.8c.1 5.7-4.6 10.4-10.4 10.4zM365 350.9H153.9c-5.7 0-10.4-4.7-10.4-10.4v-.8c0-5.7 4.7-10.4 10.4-10.4H365c5.7 0 10.4 4.7 10.4 10.4v.8c.1 5.7-4.6 10.4-10.4 10.4zM365 411.9H153.9c-5.7 0-10.4-4.7-10.4-10.4v-.8c0-5.7 4.7-10.4 10.4-10.4H365c5.7 0 10.4 4.7 10.4 10.4v.8c.1 5.7-4.6 10.4-10.4 10.4z"></path><path d="M392 43.5H179.2l38.6 51.4h144.7c27.2 0 49.5 22.3 49.5 49.5v269.3c0 27.2-22.3 49.5-49.5 49.5H154.4c-27.2 0-49.5-22.3-49.5-49.5V150.9L65.3 98.4c-.3 2.7-.8 5.3-.8 8v342.3c0 34.6 28.3 63 63 63H392c34.6 0 63-28.3 63-63V106.4c-.1-34.6-28.4-62.9-63-62.9z"></path><path d="m125.5 149.8 68.3 25c3.6 1.3 6.5-.7 6.3-4.6l-3.2-72.7c-.1-1.5-.5-2.9-1.3-4.3l.1-.1c-.1-.2-.3-.4-.4-.6l-48.8-66.6-16 11.7 44.1 60.2c1.8 2.4 1.2 5.8-1.2 7.6l-3.8 2.8c-2.4 1.8-5.8 1.2-7.6-1.2l-44-60.1-15.8 11.6 44.4 60.7c1.6 2.2 1.1 5.2-1.1 6.8l-4.7 3.5c-2.2 1.6-5.2 1.1-6.8-1.1L89.6 67.6 72.6 80l47.2 64.4c1.2 2.4 3.2 4.5 5.7 5.4zm12.5-7.9 47.6-34.9c2.9-2.1 7.6 1.3 7.8 5.8l1.1 39.7c-.7.2-1.4.3-2 .7l-14.2 10.4c-.1.1-.3 0-.3.1l-36.8-12.6c-4.2-1.5-6.1-7.1-3.2-9.2zM68.9 75.3l-5.7-7.7c-10.5-14.3-7.3-34.5 7-45l22-16.1c14.3-10.5 34.5-7.3 45 7l5.7 7.7-74 54.1z"></path></g></svg>